<svg width="339" height="159" viewBox="0 0 339 159" fill="none" xmlns="http://www.w3.org/2000/svg">
<g clip-path="url(#clip0_164_305)">
<path d="M98.2887 111.115C97.5179 113.421 96.747 114.767 94.0488 114.767C91.3507 114.767 90.5798 113.037 89.8089 111.115L82.4854 91.704C82.2927 91.3196 81.9073 90.743 81.7146 90.743C81.3291 90.743 81.3291 91.5118 81.3291 91.704V114.382H75.9329V88.6289C75.9329 84.7852 79.7873 84.7852 80.5582 84.7852C84.0272 84.7852 84.9909 86.5149 85.7617 88.6289L93.2779 108.04C93.4707 108.617 93.8561 109.193 94.0488 109.193C94.2416 109.193 94.627 108.617 94.8197 108.04L102.529 88.6289C103.685 85.3617 105.42 84.7852 107.539 84.7852C110.238 84.7852 112.358 85.9383 112.358 88.6289V114.382H106.769L106.961 91.704C106.961 90.743 106.576 90.743 106.383 90.743C106.19 90.743 105.805 91.3196 105.805 91.704L98.2887 111.115Z" fill="#EF7F1A"/>
<path d="M121.801 114.383C120.452 114.383 119.296 114.383 118.332 113.422C117.368 112.461 117.368 111.116 117.368 109.962V89.3981C117.368 88.245 117.754 86.8996 118.332 86.3231C119.296 85.1699 120.645 85.1699 121.801 85.1699H140.688V89.5903H124.885C124.306 89.5903 123.728 89.5903 123.343 89.9747C122.765 90.359 122.765 90.9356 122.765 91.32V97.2779H140.302V101.698H122.765V108.425C122.765 109.001 122.957 109.386 123.343 109.578C123.536 109.962 124.306 109.962 125.077 109.962H140.881V114.383H121.801Z" fill="#EF7F1A"/>
<path d="M172.68 110.539C172.68 113.614 170.56 114.767 168.247 114.767C166.513 114.767 164.778 114.19 163.429 112.268L151.095 92.8571C150.709 92.0884 150.517 92.0884 150.517 92.0884C150.324 92.0884 149.939 92.2805 149.939 92.8571V114.382H144.542V88.8211C144.542 86.3227 146.277 84.7852 148.975 84.7852C151.673 84.7852 152.829 85.9383 153.6 87.0914L166.127 106.695C166.32 106.887 166.32 107.464 166.706 107.464C167.284 107.464 167.284 106.887 167.284 106.695V85.1695H172.68V110.539Z" fill="#EF7F1A"/>
<path d="M182.123 114.383C179.811 114.383 179.04 113.806 178.847 113.614C178.269 113.23 177.691 112.269 177.691 110.731V89.7825C177.691 88.8215 177.691 87.4762 178.654 86.3231C179.04 85.9387 180.003 85.1699 181.738 85.1699H193.301C197.349 85.1699 200.047 86.7074 201.781 88.6293C204.672 91.7044 204.672 95.9325 204.672 99.3919C204.672 102.659 204.479 107.656 202.167 110.731C201.01 112.269 198.505 114.383 193.88 114.383H182.123ZM183.087 108.04C183.087 108.617 183.087 109.001 183.472 109.578C183.858 109.962 184.436 109.962 185.014 109.962H191.374C194.265 109.962 196.385 109.386 197.541 107.272C198.312 106.119 199.083 104.004 199.083 99.0076C199.083 96.5091 198.89 93.6263 196.963 91.7044C195.421 89.9747 192.723 89.5903 190.796 89.5903H185.014C184.629 89.5903 184.051 89.5903 183.665 89.7825C183.28 90.1668 183.087 90.7434 183.087 91.32V108.04Z" fill="#EF7F1A"/>
<path d="M213.344 114.383C212.188 114.383 211.032 114.383 210.068 113.422C209.105 112.461 208.912 111.116 208.912 109.962V89.3981C208.912 88.245 209.297 86.8996 209.875 86.3231C210.839 85.1699 212.381 85.1699 213.537 85.1699H232.231V89.5903H216.428C215.85 89.5903 215.272 89.5903 214.886 89.9747C214.501 90.359 214.501 90.9356 214.501 91.32V97.2779H231.846V101.698H214.501V108.425C214.501 109.001 214.694 109.386 214.886 109.578C215.272 109.962 215.85 109.962 216.814 109.962H232.424V114.383H213.344Z" fill="#EF7F1A"/>
<path d="M239.94 114.383C238.977 114.383 237.82 114.191 237.242 113.614C236.664 113.23 236.086 112.461 236.086 111.116V85.1699H241.675V108.425C241.675 108.809 241.675 109.194 242.06 109.578C242.253 109.77 242.638 109.962 243.409 109.962H259.405V114.383H239.94Z" fill="#EF7F1A"/>
<path d="M265.573 114.383C264.416 114.383 263.26 114.383 262.296 113.422C261.333 112.461 261.14 111.116 261.14 109.962V89.3981C261.14 88.245 261.525 86.8996 262.104 86.3231C263.067 85.1699 264.609 85.1699 265.765 85.1699H284.459V89.5903H268.656C268.078 89.5903 267.5 89.5903 267.114 89.9747C266.729 90.359 266.729 90.9356 266.729 91.32V97.2779H284.074V101.698H266.729V108.425C266.729 109.001 266.922 109.386 267.114 109.578C267.5 109.962 268.078 109.962 269.042 109.962H284.652V114.383H265.573Z" fill="#EF7F1A"/>
<path d="M292.746 114.383C291.59 114.383 290.434 114.383 289.47 113.422C288.506 112.461 288.314 111.116 288.314 109.962V89.3981C288.314 88.245 288.699 86.8996 289.47 86.3231C290.434 85.1699 291.783 85.1699 292.939 85.1699H311.633V89.5903H295.83C295.444 89.5903 294.866 89.5903 294.288 89.9747C293.903 90.359 293.903 90.9356 293.903 91.32V97.2779H311.248V101.698H293.903V108.425C293.903 109.001 294.095 109.386 294.288 109.578C294.674 109.962 295.252 109.962 296.215 109.962H311.826V114.383H292.746Z" fill="#EF7F1A"/>
<path d="M315.68 114.383V89.0137C315.68 88.0528 315.873 87.0918 316.644 86.1309C317.8 85.1699 318.764 85.1699 319.92 85.1699H339V89.5903H322.426C322.233 89.5903 321.848 89.5903 321.462 89.7825C321.077 90.1668 321.077 90.7434 321.077 91.1278V97.4701H334.182V101.698H321.077V114.383H315.68Z" fill="#EF7F1A"/>
<path d="M75.162 158.586V125.914C75.162 124.184 75.3547 122.455 76.8965 120.917C78.631 119.38 80.5582 119.188 82.1 119.188H111.394V128.797H90.1944C89.6162 128.797 89.0381 128.797 88.4599 129.374C88.0744 129.758 87.8817 130.527 87.8817 131.488V134.178H105.034V143.019H87.8817V158.586H75.162Z" fill="#1E5A68"/>
<path d="M114.285 158.586V119.188H127.005V158.586H114.285Z" fill="#1E5A68"/>
<path d="M143.193 158.586V128.989H129.125V119.188H169.982V128.989H155.913V158.586H143.193Z" fill="#1E5A68"/>
<path d="M215.272 152.052C215.272 153.397 214.886 158.97 206.599 158.97C203.708 158.97 200.625 158.586 198.119 155.127L183.858 135.139C183.665 134.754 183.28 134.178 182.894 134.178C182.701 134.178 182.123 134.178 182.123 135.331V158.586H172.294V125.722C172.294 120.725 176.534 118.803 181.16 118.803C183.28 118.803 186.941 118.995 189.447 122.454L203.708 142.634C204.094 143.019 204.286 143.595 204.865 143.595C205.443 143.595 205.443 143.019 205.443 142.634V119.187H215.272V152.052Z" fill="#1E5A68"/>
<path d="M227.413 158.586C225.872 158.586 224.137 158.394 222.595 157.241C220.861 155.704 220.861 154.166 220.861 152.244V125.338C220.861 123.8 221.053 122.263 222.595 120.917C223.944 119.572 225.872 119.188 227.413 119.188H255.551V128.797H236.086C235.508 128.797 234.544 128.989 234.159 129.374C233.58 129.95 233.58 130.719 233.58 131.295V134.178H254.973V142.827H233.58V147.055C233.58 147.824 233.773 148.208 234.159 148.4C234.737 148.977 235.7 148.977 236.471 148.977H255.744V158.586H227.413Z" fill="#1E5A68"/>
<path d="M260.947 148.785H282.725C284.652 148.785 285.038 148.016 285.038 147.439C285.038 146.286 283.689 145.902 282.532 145.517L267.114 141.289C264.994 140.713 263.453 139.367 262.682 138.406C260.947 135.908 260.562 132.449 260.562 129.566C260.562 127.067 260.754 123.992 263.067 121.686C264.224 120.533 266.343 119.188 269.812 119.188H295.83V128.989H275.787C274.245 128.989 273.86 129.181 273.667 129.181C273.281 129.374 273.089 129.95 273.089 130.334C273.089 131.488 274.823 132.064 276.365 132.449L289.663 135.908C291.397 136.485 293.71 137.253 295.059 138.791C297.565 141.097 297.757 144.941 297.757 147.632C297.757 149.938 297.757 153.205 295.83 155.511C293.71 158.394 290.627 158.586 287.928 158.586H260.947V148.785Z" fill="#1E5A68"/>
<path d="M301.612 148.785H323.389C325.317 148.785 325.702 148.016 325.702 147.439C325.702 146.286 324.353 145.902 323.004 145.517L307.779 141.289C305.466 140.713 304.117 139.367 303.346 138.406C301.419 135.908 301.226 132.449 301.226 129.566C301.226 127.067 301.419 123.992 303.732 121.686C304.888 120.533 307.008 119.188 310.477 119.188H336.495V128.989H316.451C314.91 128.989 314.524 129.181 314.331 129.181C313.946 129.374 313.753 129.95 313.753 130.334C313.753 131.488 315.488 132.064 317.03 132.449L330.328 135.908C332.062 136.485 334.375 137.253 335.724 138.791C338.229 141.097 338.422 144.941 338.422 147.632C338.422 149.938 338.229 153.205 336.495 155.511C334.375 158.394 331.291 158.586 328.593 158.586H301.612V148.785Z" fill="#1E5A68"/>
<path d="M122.765 67.1043C122.765 66.9121 122.765 66.9121 122.765 66.7199C122.765 66.5277 122.572 66.1434 122.186 66.1434V65.9512H124.114C124.499 65.9512 124.692 65.9512 124.692 66.3356C124.692 66.5277 124.692 66.7199 124.499 66.7199L124.114 68.6418H125.655C127.775 68.6418 128.739 69.9872 128.739 71.7169C128.739 72.2934 128.546 73.0622 128.354 74.0231C127.583 77.8669 126.426 79.2122 124.114 79.2122C123.536 79.2122 122.765 79.0201 122.186 78.0591H121.994L121.416 80.5576C121.416 80.7498 121.416 80.942 121.416 81.1341C121.416 81.3263 121.608 81.5185 121.994 81.5185L121.801 81.9029H119.874C119.681 81.9029 119.488 81.7107 119.488 81.3263C119.488 81.3263 119.488 80.942 119.488 80.7498L120.259 78.0591H120.066C119.296 78.8279 119.103 79.2122 117.947 79.2122C115.827 79.2122 115.248 77.8669 115.248 76.5216C115.248 75.5606 115.634 74.4075 115.827 73.4466C116.597 69.795 118.139 68.6418 120.452 68.6418H122.379L122.765 67.1043ZM120.645 70.1793C119.103 70.1793 118.139 71.1403 117.561 73.4466C117.368 74.5997 117.176 75.5606 117.176 76.1372C117.176 77.2904 117.561 77.4825 118.91 77.4825C119.874 77.4825 120.645 76.3294 121.03 74.7919L121.994 70.1793H120.645ZM122.765 74.7919C122.572 75.5606 122.572 75.945 122.572 76.3294C122.572 77.2904 122.957 77.4825 123.728 77.4825C125.655 77.4825 126.041 76.5216 126.619 73.6388C126.812 72.87 126.812 72.2934 126.812 71.909C126.812 70.5637 126.234 70.1793 124.885 70.1793H123.728L122.765 74.7919Z" fill="#1E5A68"/>
<path d="M129.703 77.0979C129.703 76.9058 129.895 76.7136 129.895 76.3292L131.244 69.9869C131.437 69.7947 131.437 69.6025 131.437 69.4104C131.437 69.2182 131.244 69.026 130.859 69.026V68.6416H132.786C133.172 68.6416 133.364 68.8338 133.364 69.2182C133.364 69.4104 133.364 69.6025 133.172 69.6025L131.823 76.137C131.823 76.3292 131.63 76.5214 131.63 76.7136C131.63 77.2901 132.015 77.4823 133.172 77.4823C134.906 77.4823 135.292 77.0979 135.677 75.7526L137.026 69.9869C137.026 69.7947 137.026 69.6025 137.026 69.4104C137.026 69.2182 136.833 69.026 136.448 69.026V68.6416H138.375C138.761 68.6416 138.953 68.8338 138.953 69.2182C138.953 69.4104 138.953 69.6025 138.953 69.6025L137.026 77.6745C137.026 77.8667 137.026 78.0589 137.026 78.2511C137.026 78.4433 137.219 78.6355 137.604 78.6355L137.412 79.0198H135.484C135.292 79.0198 135.099 78.8276 135.099 78.4433C135.099 78.4433 135.099 78.0589 135.099 77.8667C134.135 78.8276 133.943 79.212 132.208 79.212C130.474 79.212 129.703 78.2511 129.703 77.0979Z" fill="#1E5A68"/>
<path d="M143.964 69.6025C144.542 69.026 145.121 68.6416 146.47 68.6416C148.397 68.6416 148.59 69.2182 148.782 69.6025H149.168C149.746 69.026 150.324 68.6416 151.866 68.6416C153.408 68.6416 154.179 69.026 154.179 70.3713C154.179 70.5635 154.179 70.9479 153.986 71.3323L152.637 77.6745C152.444 77.8667 152.444 78.0589 152.444 78.2511C152.444 78.4433 152.637 78.6355 153.022 78.6355V79.0198H151.095C150.709 79.0198 150.517 78.8276 150.517 78.4433C150.517 78.4433 150.709 78.0589 150.709 77.8667L152.059 71.7166C152.251 71.5244 152.251 71.1401 152.251 70.9479C152.251 70.3713 151.866 70.1791 150.709 70.1791C149.36 70.1791 148.782 70.7557 148.59 71.9088L147.24 77.6745C147.24 77.8667 147.24 78.0589 147.24 78.2511C147.24 78.4433 147.24 78.6355 147.819 78.6355L147.626 79.0198H145.699C145.506 79.0198 145.313 78.8276 145.313 78.4433C145.313 78.4433 145.313 78.0589 145.313 77.8667L146.662 71.7166C146.855 71.5244 146.855 71.1401 146.855 70.9479C146.855 70.3713 146.47 70.1791 145.313 70.1791C143.964 70.1791 143.386 70.7557 143.193 71.9088L141.844 77.6745C141.844 77.8667 141.844 78.0589 141.844 78.2511C141.844 78.4433 142.037 78.6355 142.422 78.6355L142.23 79.0198H140.302C140.11 79.0198 139.917 78.8276 139.917 78.4433C139.917 78.4433 139.917 78.0589 139.917 77.8667L141.844 69.9869C141.844 69.7947 141.844 69.6025 141.844 69.4104C141.844 69.2182 141.652 69.026 141.266 69.026V68.6416H143.193C143.579 68.6416 143.771 68.8338 143.771 69.2182C143.771 69.4104 143.771 69.6025 143.771 69.6025H143.964Z" fill="#1E5A68"/>
<path d="M162.08 72.8698L162.851 69.9869C162.851 69.7947 162.851 69.6025 162.851 69.4104C162.851 69.2182 162.658 69.026 162.273 69.026V68.6416H164.2C164.586 68.6416 164.778 68.8338 164.778 69.2182C164.778 69.4104 164.778 69.6025 164.586 69.6025L162.851 77.6745C162.851 77.8667 162.851 78.0589 162.851 78.2511C162.851 78.4433 162.851 78.6355 163.429 78.6355L163.236 79.0198H161.309C161.117 79.0198 160.924 78.8276 160.924 78.4433C160.924 78.4433 160.924 78.0589 160.924 77.8667L161.695 74.2151H158.033L157.262 77.6745C157.262 77.8667 157.262 78.0589 157.262 78.2511C157.262 78.4433 157.455 78.6355 157.84 78.6355L157.648 79.0198H155.72C155.528 79.0198 155.335 78.8276 155.335 78.4433C155.335 78.4433 155.335 78.0589 155.335 77.8667L157.262 69.9869C157.262 69.7947 157.262 69.6025 157.262 69.4104C157.262 69.2182 157.069 69.026 156.684 69.026V68.6416H158.611C158.997 68.6416 159.189 68.8338 159.189 69.2182C159.189 69.4104 159.189 69.6025 159.189 69.6025L158.418 72.8698H162.08Z" fill="#1E5A68"/>
<path d="M172.68 76.9058L172.487 78.0589C172.295 79.0198 171.716 79.212 169.982 79.212H169.211C167.284 79.212 165.549 78.8276 165.549 76.3292C165.549 75.5604 165.742 74.7917 166.127 73.062C166.898 69.6025 168.44 68.6416 170.753 68.6416C173.451 68.6416 174.222 69.6025 174.222 71.1401C174.222 71.5244 174.222 74.0229 173.065 74.0229H167.862C167.669 74.7917 167.476 75.5604 167.476 76.137C167.476 77.2901 168.055 77.4823 169.404 77.4823H170.56C171.909 77.4823 172.102 77.2901 172.487 76.9058H172.68ZM172.295 72.4854C172.487 71.9088 172.487 71.5244 172.487 71.1401C172.487 70.3713 172.102 70.1791 170.753 70.1791C169.018 70.1791 168.633 70.7557 168.247 72.4854H172.295Z" fill="#1E5A68"/>
<path d="M182.123 76.9058L181.931 78.0589C181.545 79.0198 181.16 79.212 179.232 79.212H178.654C175.956 79.212 175.185 78.2511 175.185 76.5214C175.185 75.5604 175.378 74.5995 175.763 73.4463C176.534 69.7947 177.883 68.6416 180.196 68.6416H183.087V69.4104C182.894 69.9869 182.509 70.1791 181.931 70.1791H180.389C178.654 70.1791 178.076 71.1401 177.691 73.4463C177.305 74.5995 177.113 75.5604 177.113 76.137C177.113 77.2901 177.883 77.4823 179.232 77.4823H180.003C181.352 77.4823 181.545 77.2901 181.931 76.9058H182.123Z" fill="#1E5A68"/>
<path d="M194.65 77.8667C193.88 78.8276 193.494 79.212 191.76 79.212C189.832 79.212 189.254 78.2511 189.254 77.0979C189.254 76.9058 189.254 76.7136 189.254 76.3292L190.796 69.9869C190.796 69.7947 190.796 69.6025 190.796 69.4104C190.796 69.2182 190.603 69.026 190.218 69.026L190.41 68.6416H192.338C192.53 68.6416 192.723 68.8338 192.723 69.2182C192.723 69.4104 192.723 69.6025 192.723 69.6025L191.181 76.137C191.181 76.3292 191.181 76.5214 191.181 76.7136C191.181 77.2901 191.567 77.4823 192.53 77.4823C194.265 77.4823 194.843 76.9058 195.229 75.176L196.385 69.9869C196.385 69.7947 196.578 69.6025 196.578 69.4104C196.578 69.2182 196.385 69.026 195.999 69.026V68.6416H197.927C198.312 68.6416 198.312 68.8338 198.312 69.2182C198.312 69.4104 198.312 69.6025 198.312 69.6025L196.963 76.137C196.77 76.5214 196.77 76.9058 196.77 77.0979C196.77 77.4823 196.963 77.6745 197.541 77.6745C197.734 77.6745 197.927 77.6745 198.119 77.6745L197.541 80.9417C197.349 81.7105 197.349 81.7105 196.77 81.7105H196.578C195.999 81.7105 195.807 81.7105 195.807 81.3261C195.807 81.1339 195.807 80.9417 195.807 80.7495L196.385 79.212C195.614 79.212 194.843 78.6355 194.843 77.8667H194.65Z" fill="#1E5A68"/>
<path d="M206.407 76.9058L206.214 78.0589C205.828 79.0198 205.443 79.212 203.516 79.212H202.745C201.01 79.212 199.276 78.8276 199.276 76.3292C199.276 75.5604 199.468 74.7917 199.854 73.062C200.625 69.6025 201.974 68.6416 204.479 68.6416C207.177 68.6416 207.948 69.6025 207.948 71.1401C207.948 71.5244 207.756 74.0229 206.792 74.0229H201.588C201.203 74.7917 201.203 75.5604 201.203 76.137C201.203 77.2901 201.781 77.4823 202.937 77.4823H204.287C205.636 77.4823 205.828 77.2901 206.214 76.9058H206.407ZM206.021 72.4854C206.214 71.9088 206.214 71.5244 206.214 71.1401C206.214 70.3713 205.828 70.1791 204.479 70.1791C202.745 70.1791 202.359 70.7557 201.781 72.4854H206.021Z" fill="#1E5A68"/>
<path d="M215.657 72.8698L216.428 69.9869C216.428 69.7947 216.428 69.6025 216.428 69.4104C216.428 69.2182 216.235 69.026 215.85 69.026L216.043 68.6416H217.97C218.163 68.6416 218.355 68.8338 218.355 69.2182C218.355 69.4104 218.355 69.6025 218.355 69.6025L216.428 77.6745C216.428 77.8667 216.428 78.0589 216.428 78.2511C216.428 78.4433 216.621 78.6355 217.006 78.6355V79.0198H215.079C214.694 79.0198 214.501 78.8276 214.501 78.4433C214.501 78.4433 214.501 78.0589 214.501 77.8667L215.464 74.2151H211.61L210.839 77.6745C210.839 77.8667 210.839 78.0589 210.839 78.2511C210.839 78.4433 211.032 78.6355 211.417 78.6355V79.0198H209.49C209.105 79.0198 208.912 78.8276 208.912 78.4433C208.912 78.4433 208.912 78.0589 209.105 77.8667L210.839 69.9869C210.839 69.7947 210.839 69.6025 210.839 69.4104C210.839 69.2182 210.839 69.026 210.261 69.026L210.454 68.6416H212.381C212.574 68.6416 212.766 68.8338 212.766 69.2182C212.766 69.4104 212.766 69.6025 212.766 69.6025L211.995 72.8698H215.657Z" fill="#1E5A68"/>
<path d="M223.366 69.6025C223.944 69.026 224.522 68.6416 225.872 68.6416C227.799 68.6416 228.184 69.2182 228.377 69.6025H228.762C229.341 69.026 229.726 68.6416 231.268 68.6416C232.81 68.6416 233.58 69.026 233.58 70.3713C233.58 70.5635 233.58 70.9479 233.388 71.3323L232.039 77.6745C232.039 77.8667 231.846 78.0589 231.846 78.2511C231.846 78.4433 232.039 78.6355 232.424 78.6355V79.0198H230.497C230.304 79.0198 230.111 78.8276 230.111 78.4433C230.111 78.4433 230.111 78.0589 230.111 77.8667L231.461 71.7166C231.653 71.5244 231.653 71.1401 231.653 70.9479C231.653 70.3713 231.268 70.1791 230.111 70.1791C228.762 70.1791 228.184 70.7557 227.992 71.9088L226.642 77.6745C226.642 77.8667 226.642 78.0589 226.642 78.2511C226.642 78.4433 226.835 78.6355 227.221 78.6355L227.028 79.0198H225.101C224.908 79.0198 224.715 78.8276 224.715 78.4433C224.715 78.4433 224.715 78.0589 224.715 77.8667L226.257 71.7166C226.257 71.5244 226.257 71.1401 226.257 70.9479C226.257 70.3713 225.872 70.1791 224.908 70.1791C223.366 70.1791 222.788 70.7557 222.595 71.9088L221.246 77.6745C221.246 77.8667 221.246 78.0589 221.246 78.2511C221.246 78.4433 221.439 78.6355 221.824 78.6355V79.0198H219.897C219.512 79.0198 219.319 78.8276 219.319 78.4433C219.319 78.4433 219.319 78.0589 219.319 77.8667L221.246 69.9869C221.246 69.7947 221.246 69.6025 221.246 69.4104C221.246 69.2182 221.053 69.026 220.668 69.026L220.861 68.6416H222.788C222.981 68.6416 223.173 68.8338 223.173 69.2182C223.173 69.4104 223.173 69.6025 223.173 69.6025H223.366Z" fill="#1E5A68"/>
<path d="M238.591 69.7947C239.169 68.8338 239.555 68.6416 241.097 68.6416C243.217 68.6416 243.988 69.6025 243.988 71.1401C243.988 71.7166 243.795 72.4854 243.217 74.9839C242.638 77.6745 241.675 79.0198 239.362 79.0198H236.279L235.893 80.5574C235.893 80.7495 235.893 80.7495 235.893 80.9417C235.893 81.1339 236.086 81.5183 236.471 81.5183V81.7105H234.544C234.159 81.7105 233.966 81.7105 233.966 81.3261C233.966 81.1339 233.966 80.9417 234.159 80.7495L236.471 69.9869C236.664 69.7947 236.664 69.6025 236.664 69.4104C236.664 69.2182 236.471 69.026 236.086 69.026V68.6416H238.013C238.399 68.6416 238.591 68.8338 238.591 69.2182C238.591 69.4104 238.399 69.6025 238.399 69.6025L238.591 69.7947ZM238.784 77.4823C240.326 77.4823 240.904 76.5214 241.482 74.4073C241.868 72.4854 242.06 71.9088 242.06 71.5244C242.06 70.5635 241.482 70.1791 240.519 70.1791C238.784 70.1791 238.206 70.7557 237.82 72.6776L236.664 77.4823H238.784Z" fill="#1E5A68"/>
<path d="M261.332 79.0198H259.405C258.827 79.0198 258.634 78.6355 258.634 78.0589V72.101L255.744 79.0198H253.816L253.238 72.101L251.311 77.8667C251.311 78.0589 251.118 78.0589 251.118 78.2511C251.118 78.4433 251.311 78.6355 251.696 78.6355L251.504 79.0198H249.576C249.191 79.0198 249.191 78.8276 249.191 78.6355C249.191 78.4433 249.191 78.2511 249.191 78.0589L252.082 69.9869C252.082 69.7947 252.082 69.6025 252.082 69.6025C252.082 69.2182 251.889 69.026 251.696 69.026V68.6416H254.202C254.973 68.6416 255.165 69.026 255.165 69.7947L255.744 74.4073L257.671 69.9869C257.671 69.7947 257.863 69.6025 257.863 69.4104C257.863 69.2182 257.671 69.026 257.285 69.026L257.478 68.6416H259.791C260.754 68.6416 260.947 69.2182 260.947 69.9869V77.8667C260.947 78.4433 260.947 78.6355 261.525 78.6355L261.332 79.0198Z" fill="#1E5A68"/>
<path d="M271.162 73.2542C270.969 74.0229 270.583 74.2151 269.62 74.2151H265.187C264.994 75.176 264.994 75.7526 264.994 75.9448C264.994 76.7136 265.38 77.0979 266.536 77.0979H268.271C269.234 77.0979 269.62 77.0979 270.005 76.7136H270.198L270.005 77.6745C269.812 78.8276 269.234 79.0198 267.5 79.0198H265.958C264.031 79.0198 262.489 78.4433 262.489 76.137C262.489 75.3682 262.682 74.5995 262.874 73.6385C263.645 70.1791 264.994 68.6416 268.078 68.6416C270.391 68.6416 271.547 69.6025 271.547 71.3323C271.547 71.7166 271.354 72.6776 271.162 73.2542ZM267.885 70.5635C266.343 70.5635 265.958 71.3323 265.765 72.4854H269.042C269.234 72.101 269.234 71.9088 269.234 71.5244C269.234 70.7557 268.849 70.5635 267.885 70.5635Z" fill="#1E5A68"/>
<path d="M281.954 69.9869L280.219 77.8667C280.027 78.0589 280.027 78.2511 280.027 78.2511C280.027 78.4433 280.219 78.6355 280.605 78.6355L280.412 79.0198H278.678C278.099 79.0198 277.714 78.6355 277.714 78.2511C277.714 78.0589 277.907 77.8667 277.907 77.6745L278.678 74.4073H275.401L274.63 77.8667C274.438 78.0589 274.438 78.2511 274.438 78.2511C274.438 78.4433 274.63 78.6355 275.016 78.6355L274.823 79.0198H273.089C272.51 79.0198 272.125 78.6355 272.125 78.2511C272.125 78.0589 272.318 77.8667 272.318 77.6745L274.052 69.7947C274.245 69.6025 274.245 69.6025 274.245 69.4104C274.245 69.2182 274.052 69.026 273.667 69.026L273.86 68.6416H275.594C276.365 68.6416 276.558 69.026 276.558 69.4104C276.558 69.6025 276.365 69.7947 276.365 69.9869L275.787 72.6776H279.063L279.641 69.7947C279.641 69.6025 279.834 69.6025 279.834 69.4104C279.834 69.2182 279.641 69.026 279.256 69.026L279.448 68.6416H281.183C281.761 68.6416 282.147 69.026 282.147 69.4104C282.147 69.4104 281.954 69.7947 281.954 69.9869Z" fill="#1E5A68"/>
<path d="M292.361 69.7947L290.241 78.6355C289.856 80.3652 288.699 81.7105 286.194 81.7105H284.074C282.918 81.7105 282.339 81.5183 282.339 80.5574C282.339 80.3652 282.339 80.173 282.339 79.9808L282.532 79.212H282.725C283.11 79.7886 283.496 79.7886 284.267 79.7886H285.616C287.35 79.7886 287.928 79.0198 288.121 78.0589L288.314 77.0979H288.121L287.35 78.0589C286.965 78.4433 286.387 78.6355 285.423 78.6355C283.688 78.6355 282.918 77.8667 282.918 76.137C282.918 75.5604 282.918 74.5995 283.303 73.6385C284.074 69.9869 286.001 68.6416 288.699 68.6416H291.783C292.168 68.6416 292.554 69.026 292.554 69.4104C292.554 69.4104 292.361 69.6025 292.361 69.7947ZM288.699 70.5635C287.157 70.5635 286.194 71.5244 285.808 73.6385C285.616 74.5995 285.423 74.9839 285.423 75.5604C285.423 76.5214 285.808 76.7136 286.772 76.7136C287.928 76.7136 288.506 76.137 288.892 74.5995L289.856 70.5635H288.699Z" fill="#1E5A68"/>
<path d="M301.997 73.2542C301.804 74.0229 301.612 74.2151 300.648 74.2151H296.023C296.023 75.176 295.83 75.7526 295.83 75.9448C295.83 76.7136 296.215 77.0979 297.372 77.0979H299.106C300.07 77.0979 300.455 77.0979 300.841 76.7136H301.034L300.841 77.6745C300.648 78.8276 300.07 79.0198 298.335 79.0198H296.794C294.866 79.0198 293.517 78.4433 293.517 76.137C293.517 75.3682 293.517 74.5995 293.71 73.6385C294.674 70.1791 296.023 68.6416 298.914 68.6416C301.226 68.6416 302.383 69.6025 302.383 71.3323C302.383 71.7166 302.383 72.6776 301.997 73.2542ZM298.721 70.5635C297.372 70.5635 296.986 71.3323 296.601 72.4854H300.07C300.07 72.101 300.07 71.9088 300.07 71.5244C300.07 70.7557 299.684 70.5635 298.721 70.5635Z" fill="#1E5A68"/>
<path d="M310.862 79.0198H308.935C308.357 79.0198 308.164 78.6355 307.972 78.0589L307.586 71.5244L304.503 77.8667C304.503 78.0589 304.503 78.2511 304.503 78.2511C304.503 78.4433 304.503 78.6355 304.888 78.6355L304.695 79.0198H302.768C302.383 79.0198 302.19 78.8276 302.19 78.6355C302.19 78.4433 302.383 78.2511 302.383 78.0589L306.43 69.9869C306.623 69.7947 306.623 69.6025 306.623 69.4104C306.623 69.2182 306.43 69.026 306.237 69.026V68.6416H308.935C309.513 68.6416 309.706 69.026 309.706 69.6025L310.284 78.0589C310.284 78.4433 310.477 78.6355 310.862 78.6355V79.0198Z" fill="#1E5A68"/>
<path d="M320.306 73.2542C320.113 74.0229 319.728 74.2151 318.957 74.2151H314.331C314.139 75.176 314.139 75.7526 314.139 75.9448C314.139 76.7136 314.524 77.0979 315.68 77.0979H317.415C318.379 77.0979 318.764 77.0979 319.15 76.7136H319.342L319.15 77.6745C318.957 78.8276 318.379 79.0198 316.644 79.0198H315.102C313.175 79.0198 311.633 78.4433 311.633 76.137C311.633 75.3682 311.826 74.5995 312.019 73.6385C312.79 70.1791 314.139 68.6416 317.222 68.6416C319.535 68.6416 320.691 69.6025 320.691 71.3323C320.691 71.7166 320.499 72.6776 320.306 73.2542ZM317.03 70.5635C315.488 70.5635 315.102 71.3323 314.91 72.4854H318.186C318.379 72.101 318.379 71.9088 318.379 71.5244C318.379 70.7557 317.993 70.5635 317.03 70.5635Z" fill="#1E5A68"/>
<path d="M329.942 73.2542C329.749 74.0229 329.557 74.2151 328.593 74.2151H323.968C323.968 75.176 323.775 75.7526 323.775 75.9448C323.775 76.7136 324.16 77.0979 325.317 77.0979H327.244C328.015 77.0979 328.4 77.0979 328.786 76.7136H329.171L328.786 77.6745C328.593 78.8276 328.015 79.0198 326.28 79.0198H324.738C322.811 79.0198 321.462 78.4433 321.462 76.137C321.462 75.3682 321.462 74.5995 321.655 73.6385C322.618 70.1791 323.968 68.6416 326.858 68.6416C329.171 68.6416 330.327 69.6025 330.327 71.3323C330.327 71.7166 330.327 72.6776 329.942 73.2542ZM326.666 70.5635C325.317 70.5635 324.931 71.3323 324.546 72.4854H328.015C328.015 72.101 328.015 71.9088 328.015 71.5244C328.015 70.7557 327.629 70.5635 326.666 70.5635Z" fill="#1E5A68"/>
<path d="M338.614 66.9119C338.614 67.2963 338.229 67.4885 337.844 67.4885H336.302C335.916 67.4885 335.724 67.6807 335.531 68.2573V68.6416H338.036L337.651 69.987C337.651 70.3713 337.458 70.5635 336.88 70.5635H335.531C335.145 70.5635 334.953 70.7557 334.953 71.1401L333.218 77.8667C333.218 78.0589 333.218 78.2511 333.218 78.2511C333.218 78.4433 333.411 78.6355 333.796 78.6355L333.604 79.0199H331.869C331.291 79.0199 330.906 78.6355 330.906 78.2511C330.906 78.0589 330.906 77.8667 331.098 77.6745L332.64 70.5635H331.869L332.255 69.026C332.833 69.026 333.218 68.6416 333.411 67.8729C333.796 66.3354 334.567 65.7588 336.109 65.7588H339L338.614 66.9119Z" fill="#1E5A68"/>
<path fill-rule="evenodd" clip-rule="evenodd" d="M56.2751 16.1738C53.9624 17.7113 51.6497 19.2489 49.5298 20.7864C55.8896 29.2427 48.5662 28.0896 52.6134 33.4709C57.2387 30.3959 62.8277 27.7052 63.4059 23.8614C61.4786 19.4411 58.9732 17.327 56.2751 16.1738Z" fill="#1E5A68"/>
<path fill-rule="evenodd" clip-rule="evenodd" d="M64.9475 80.5572C73.0418 78.0587 83.0634 76.9056 87.3034 78.0587C86.9179 74.5993 86.7252 71.1399 86.5325 67.6805C82.2925 65.9508 67.0674 68.4493 63.4057 69.218C62.2493 64.4133 61.8639 64.0289 61.093 61.7226C60.7076 54.035 80.1726 50.5756 91.3505 53.0741C103.685 56.7257 90.3869 79.0197 99.4449 81.326C108.888 46.7318 111.972 38.0833 104.263 49.9991C90.1942 40.0052 71.8855 43.2724 56.2749 49.6147C51.0714 37.5067 42.3989 28.4738 37.9662 21.3628C29.8718 7.14079 32.1845 0.414159 32.1845 0.02978C31.9918 -0.738978 25.6319 11.7533 34.6899 26.9363C40.0862 35.9692 44.7115 40.774 49.7223 52.6897C29.4864 63.2601 -12.5272 91.512 3.6615 140.136C-3.27653 95.548 36.039 69.7946 52.6132 60.7617C53.3841 64.2211 55.504 67.8727 56.0822 70.7555C50.686 74.4071 34.1118 78.8275 35.6535 90.5511C37.1953 97.2777 46.6388 85.5541 58.5876 83.0557C65.1402 120.148 35.0754 175.691 6.74507 148.784C35.8463 182.418 72.4637 125.53 64.9475 80.5572Z" fill="#1E5A68"/>
</g>
<defs>
<clipPath id="clip0_164_305">
<rect width="339" height="159" fill="white"/>
</clipPath>
</defs>
</svg>
