<svg width="32" height="32" viewBox="0 0 32 32" fill="none" xmlns="http://www.w3.org/2000/svg">
<rect width="32" height="32" rx="16" fill="#5AA50F"/>
<path fill-rule="evenodd" clip-rule="evenodd" d="M12.0596 12.042C12.0596 9.83105 13.7924 8 15.9772 8C18.1621 8 19.8949 9.83105 19.8949 12.042C19.8949 14.2524 18.1621 16.084 15.9772 16.084C13.7924 16.084 12.0596 14.2524 12.0596 12.042ZM18.2235 19.7363C18.788 19.5283 19.3234 19.2378 19.8096 18.874C20.4653 18.3828 20.5531 17.4629 20.0709 16.8325C19.5912 16.2051 18.6834 16.041 18.0319 16.5288C17.4338 16.9766 16.7138 17.2119 16.0172 17.1978C15.3174 17.1836 14.5652 16.9155 13.9469 16.4438C13.3157 15.9624 12.3959 16.0513 11.9056 16.708C11.4187 17.3599 11.5839 18.2676 12.2119 18.7466C12.6998 19.1187 13.2379 19.4233 13.8032 19.6494L12.1979 21.5718C11.6888 22.1812 11.7489 23.0991 12.3418 23.6323C12.9481 24.1772 13.8701 24.1055 14.3903 23.4829L15.9771 21.583L17.564 23.4829C18.084 24.1055 19.0061 24.1772 19.6123 23.6323C20.2052 23.0991 20.2654 22.1812 19.7564 21.5718L18.2235 19.7363ZM16 12.9995C16.5523 12.9995 17 12.5518 17 11.9995C17 11.4473 16.5523 10.9995 16 10.9995C15.4478 10.9995 15 11.4473 15 11.9995C15 12.5518 15.4478 12.9995 16 12.9995Z" fill="#ECEFF1"/>
</svg>
