<svg width="228" height="228" viewBox="0 0 228 228" fill="none" xmlns="http://www.w3.org/2000/svg">
<path d="M0 50C0 22.3858 22.3858 0 50 0H228V178C228 205.614 205.614 228 178 228H0V50Z" fill="white"/>
<g clip-path="url(#clip0_301_345)">
<path d="M68.6265 129.282C68.1354 130.761 67.6442 131.624 65.925 131.624C64.2058 131.624 63.7147 130.514 63.2235 129.282L58.5572 116.829C58.4344 116.583 58.1888 116.213 58.066 116.213C57.8204 116.213 57.8204 116.706 57.8204 116.829V131.378H54.3821V114.856C54.3821 112.391 56.838 112.391 57.3292 112.391C59.5396 112.391 60.1535 113.5 60.6447 114.856L65.4338 127.309C65.5566 127.679 65.8022 128.049 65.925 128.049C66.0478 128.049 66.2934 127.679 66.4162 127.309L71.3281 114.856C72.0649 112.76 73.17 112.391 74.5208 112.391C76.24 112.391 77.5907 113.13 77.5907 114.856V131.378H74.0296L74.1524 116.829C74.1524 116.213 73.9068 116.213 73.784 116.213C73.6612 116.213 73.4156 116.583 73.4156 116.829L68.6265 129.282Z" fill="#EF7F1A"/>
<path d="M83.6078 131.379C82.7482 131.379 82.0114 131.379 81.3974 130.763C80.7834 130.146 80.7834 129.283 80.7834 128.543V115.351C80.7834 114.611 81.029 113.748 81.3974 113.378C82.0114 112.639 82.871 112.639 83.6078 112.639H95.6419V115.474H85.5725C85.2041 115.474 84.8357 115.474 84.5902 115.721C84.2218 115.968 84.2218 116.337 84.2218 116.584V120.406H95.3963V123.242H84.2218V127.557C84.2218 127.927 84.3446 128.173 84.5902 128.297C84.713 128.543 85.2041 128.543 85.6953 128.543H95.7647V131.379H83.6078Z" fill="#EF7F1A"/>
<path d="M116.026 128.912C116.026 130.884 114.675 131.624 113.202 131.624C112.097 131.624 110.991 131.254 110.132 130.021L102.273 117.569C102.027 117.076 101.904 117.076 101.904 117.076C101.782 117.076 101.536 117.199 101.536 117.569V131.378H98.0978V114.98C98.0978 113.377 99.203 112.391 100.922 112.391C102.641 112.391 103.378 113.13 103.869 113.87L111.851 126.446C111.974 126.569 111.974 126.939 112.219 126.939C112.588 126.939 112.588 126.569 112.588 126.446V112.637H116.026V128.912Z" fill="#EF7F1A"/>
<path d="M122.043 131.379C120.57 131.379 120.078 131.009 119.956 130.886C119.587 130.639 119.219 130.023 119.219 129.036V115.598C119.219 114.981 119.219 114.118 119.833 113.378C120.078 113.132 120.692 112.639 121.798 112.639H129.165C131.744 112.639 133.463 113.625 134.569 114.858C136.41 116.831 136.41 119.543 136.41 121.762C136.41 123.858 136.288 127.064 134.814 129.036C134.077 130.023 132.481 131.379 129.534 131.379H122.043ZM122.657 127.31C122.657 127.68 122.657 127.927 122.903 128.297C123.148 128.543 123.517 128.543 123.885 128.543H127.937C129.779 128.543 131.13 128.173 131.867 126.817C132.358 126.077 132.849 124.721 132.849 121.516C132.849 119.913 132.727 118.063 131.499 116.831C130.516 115.721 128.797 115.474 127.569 115.474H123.885C123.64 115.474 123.271 115.474 123.026 115.598C122.78 115.844 122.657 116.214 122.657 116.584V127.31Z" fill="#EF7F1A"/>
<path d="M141.936 131.379C141.2 131.379 140.463 131.379 139.849 130.763C139.235 130.146 139.112 129.283 139.112 128.543V115.351C139.112 114.611 139.358 113.748 139.726 113.378C140.34 112.639 141.322 112.639 142.059 112.639H153.971V115.474H143.901C143.533 115.474 143.164 115.474 142.919 115.721C142.673 115.968 142.673 116.337 142.673 116.584V120.406H153.725V123.242H142.673V127.557C142.673 127.927 142.796 128.173 142.919 128.297C143.164 128.543 143.533 128.543 144.147 128.543H154.093V131.379H141.936Z" fill="#EF7F1A"/>
<path d="M158.882 131.379C158.268 131.379 157.532 131.256 157.163 130.886C156.795 130.639 156.426 130.146 156.426 129.283V112.639H159.988V127.557C159.988 127.804 159.988 128.05 160.233 128.297C160.356 128.42 160.601 128.543 161.093 128.543H171.285V131.379H158.882Z" fill="#EF7F1A"/>
<path d="M175.214 131.379C174.478 131.379 173.741 131.379 173.127 130.763C172.513 130.146 172.39 129.283 172.39 128.543V115.351C172.39 114.611 172.636 113.748 173.004 113.378C173.618 112.639 174.6 112.639 175.337 112.639H187.248V115.474H177.179C176.811 115.474 176.442 115.474 176.197 115.721C175.951 115.968 175.951 116.337 175.951 116.584V120.406H187.003V123.242H175.951V127.557C175.951 127.927 176.074 128.173 176.197 128.297C176.442 128.543 176.811 128.543 177.425 128.543H187.371V131.379H175.214Z" fill="#EF7F1A"/>
<path d="M192.529 131.379C191.792 131.379 191.055 131.379 190.441 130.763C189.827 130.146 189.704 129.283 189.704 128.543V115.351C189.704 114.611 189.95 113.748 190.441 113.378C191.055 112.639 191.915 112.639 192.651 112.639H204.563V115.474H194.493C194.248 115.474 193.879 115.474 193.511 115.721C193.265 115.968 193.265 116.337 193.265 116.584V120.406H204.317V123.242H193.265V127.557C193.265 127.927 193.388 128.173 193.511 128.297C193.757 128.543 194.125 128.543 194.739 128.543H204.686V131.379H192.529Z" fill="#EF7F1A"/>
<path d="M207.142 131.379V115.104C207.142 114.488 207.264 113.872 207.756 113.255C208.492 112.639 209.106 112.639 209.843 112.639H222V115.474H211.439C211.317 115.474 211.071 115.474 210.826 115.598C210.58 115.844 210.58 116.214 210.58 116.461V120.529H218.93V123.242H210.58V131.379H207.142Z" fill="#EF7F1A"/>
<path d="M53.8909 159.736V138.776C53.8909 137.667 54.0137 136.557 54.996 135.571C56.1012 134.584 57.3292 134.461 58.3116 134.461H76.9767V140.626H63.469C63.1006 140.626 62.7323 140.626 62.3639 140.995C62.1183 141.242 61.9955 141.735 61.9955 142.352V144.078H72.9244V149.749H61.9955V159.736H53.8909Z" fill="#1E5A68"/>
<path d="M78.8186 159.736V134.461H86.9232V159.736H78.8186Z" fill="#1E5A68"/>
<path d="M97.2382 159.736V140.749H88.274V134.461H114.307V140.749H105.343V159.736H97.2382Z" fill="#1E5A68"/>
<path d="M143.164 155.542C143.164 156.405 142.919 159.981 137.638 159.981C135.796 159.981 133.832 159.734 132.235 157.515L123.148 144.693C123.026 144.446 122.78 144.076 122.534 144.076C122.412 144.076 122.043 144.076 122.043 144.816V159.734H115.781V138.651C115.781 135.446 118.482 134.213 121.429 134.213C122.78 134.213 125.113 134.336 126.709 136.555L135.796 149.501C136.042 149.748 136.165 150.117 136.533 150.117C136.902 150.117 136.902 149.748 136.902 149.501V134.459H143.164V155.542Z" fill="#1E5A68"/>
<path d="M150.901 159.736C149.918 159.736 148.813 159.612 147.831 158.873C146.725 157.886 146.725 156.9 146.725 155.667V138.406C146.725 137.42 146.848 136.434 147.831 135.571C148.69 134.708 149.918 134.461 150.901 134.461H168.829V140.626H156.426C156.058 140.626 155.444 140.749 155.198 140.995C154.83 141.365 154.83 141.858 154.83 142.228V144.078H168.461V149.626H154.83V152.338C154.83 152.831 154.953 153.078 155.198 153.201C155.567 153.571 156.181 153.571 156.672 153.571H168.952V159.736H150.901Z" fill="#1E5A68"/>
<path d="M172.267 153.448H186.143C187.371 153.448 187.617 152.955 187.617 152.585C187.617 151.845 186.757 151.598 186.02 151.352L176.197 148.639C174.846 148.27 173.864 147.407 173.372 146.79C172.267 145.187 172.022 142.968 172.022 141.119C172.022 139.516 172.144 137.543 173.618 136.064C174.355 135.324 175.706 134.461 177.916 134.461H194.493V140.749H181.723C180.74 140.749 180.495 140.872 180.372 140.872C180.126 140.995 180.003 141.365 180.003 141.612C180.003 142.352 181.109 142.721 182.091 142.968L190.564 145.187C191.669 145.557 193.143 146.05 194.002 147.037C195.599 148.516 195.721 150.982 195.721 152.708C195.721 154.188 195.721 156.284 194.493 157.763C193.143 159.612 191.178 159.736 189.459 159.736H172.267V153.448Z" fill="#1E5A68"/>
<path d="M198.177 153.448H212.053C213.281 153.448 213.527 152.955 213.527 152.585C213.527 151.845 212.667 151.598 211.808 151.352L202.107 148.639C200.633 148.27 199.774 147.407 199.283 146.79C198.055 145.187 197.932 142.968 197.932 141.119C197.932 139.516 198.055 137.543 199.528 136.064C200.265 135.324 201.616 134.461 203.826 134.461H220.404V140.749H207.633C206.65 140.749 206.405 140.872 206.282 140.872C206.036 140.995 205.914 141.365 205.914 141.612C205.914 142.352 207.019 142.721 208.001 142.968L216.474 145.187C217.579 145.557 219.053 146.05 219.912 147.037C221.509 148.516 221.632 150.982 221.632 152.708C221.632 154.188 221.509 156.284 220.404 157.763C219.053 159.612 217.088 159.736 215.369 159.736H198.177V153.448Z" fill="#1E5A68"/>
<path d="M84.2217 101.048C84.2217 100.925 84.2217 100.925 84.2217 100.802C84.2217 100.678 84.0989 100.432 83.8533 100.432V100.309H85.0813C85.3269 100.309 85.4497 100.309 85.4497 100.555C85.4497 100.678 85.4497 100.802 85.3269 100.802L85.0813 102.035H86.0637C87.4144 102.035 88.0284 102.898 88.0284 104.007C88.0284 104.377 87.9056 104.87 87.7828 105.487C87.2916 107.953 86.5548 108.816 85.0813 108.816C84.7129 108.816 84.2217 108.692 83.8533 108.076H83.7305L83.3621 109.679C83.3621 109.802 83.3621 109.925 83.3621 110.049C83.3621 110.172 83.4849 110.295 83.7305 110.295L83.6077 110.542H82.3797C82.2569 110.542 82.1342 110.418 82.1342 110.172C82.1342 110.172 82.1342 109.925 82.1342 109.802L82.6253 108.076H82.5025C82.0114 108.569 81.8886 108.816 81.1518 108.816C79.801 108.816 79.4326 107.953 79.4326 107.09C79.4326 106.473 79.6782 105.733 79.801 105.117C80.2922 102.774 81.2746 102.035 82.7481 102.035H83.9761L84.2217 101.048ZM82.8709 103.021C81.8886 103.021 81.2746 103.637 80.9062 105.117C80.7834 105.857 80.6606 106.473 80.6606 106.843C80.6606 107.583 80.9062 107.706 81.7658 107.706C82.3797 107.706 82.8709 106.966 83.1165 105.98L83.7305 103.021H82.8709ZM84.2217 105.98C84.0989 106.473 84.0989 106.72 84.0989 106.966C84.0989 107.583 84.3445 107.706 84.8357 107.706C86.0637 107.706 86.3093 107.09 86.6776 105.24C86.8004 104.747 86.8004 104.377 86.8004 104.131C86.8004 103.268 86.432 103.021 85.5725 103.021H84.8357L84.2217 105.98Z" fill="#1E5A68"/>
<path d="M88.6425 107.46C88.6425 107.337 88.7653 107.213 88.7653 106.967L89.6248 102.898C89.7476 102.775 89.7476 102.652 89.7476 102.528C89.7476 102.405 89.6248 102.282 89.3792 102.282V102.035H90.6072C90.8528 102.035 90.9756 102.158 90.9756 102.405C90.9756 102.528 90.9756 102.652 90.8528 102.652L89.9932 106.844C89.9932 106.967 89.8704 107.09 89.8704 107.213C89.8704 107.583 90.116 107.707 90.8528 107.707C91.958 107.707 92.2036 107.46 92.4492 106.597L93.3087 102.898C93.3087 102.775 93.3087 102.652 93.3087 102.528C93.3087 102.405 93.1859 102.282 92.9404 102.282V102.035H94.1683C94.4139 102.035 94.5367 102.158 94.5367 102.405C94.5367 102.528 94.5367 102.652 94.5367 102.652L93.3087 107.83C93.3087 107.953 93.3087 108.076 93.3087 108.2C93.3087 108.323 93.4315 108.446 93.6771 108.446L93.5543 108.693H92.3264C92.2036 108.693 92.0808 108.57 92.0808 108.323C92.0808 108.323 92.0808 108.076 92.0808 107.953C91.4668 108.57 91.344 108.816 90.2388 108.816C89.1336 108.816 88.6425 108.2 88.6425 107.46Z" fill="#1E5A68"/>
<path d="M97.7294 102.652C98.0978 102.282 98.4662 102.035 99.3257 102.035C100.554 102.035 100.677 102.405 100.799 102.652H101.045C101.413 102.282 101.782 102.035 102.764 102.035C103.746 102.035 104.238 102.282 104.238 103.145C104.238 103.268 104.238 103.515 104.115 103.761L103.255 107.83C103.132 107.953 103.132 108.076 103.132 108.2C103.132 108.323 103.255 108.446 103.501 108.446V108.693H102.273C102.027 108.693 101.904 108.57 101.904 108.323C101.904 108.323 102.027 108.076 102.027 107.953L102.887 104.008C103.01 103.885 103.01 103.638 103.01 103.515C103.01 103.145 102.764 103.021 102.027 103.021C101.168 103.021 100.799 103.391 100.677 104.131L99.8169 107.83C99.8169 107.953 99.8169 108.076 99.8169 108.2C99.8169 108.323 99.8169 108.446 100.185 108.446L100.063 108.693H98.8345C98.7117 108.693 98.589 108.57 98.589 108.323C98.589 108.323 98.589 108.076 98.589 107.953L99.4485 104.008C99.5713 103.885 99.5713 103.638 99.5713 103.515C99.5713 103.145 99.3257 103.021 98.589 103.021C97.7294 103.021 97.361 103.391 97.2382 104.131L96.3786 107.83C96.3786 107.953 96.3786 108.076 96.3786 108.2C96.3786 108.323 96.5014 108.446 96.747 108.446L96.6242 108.693H95.3962C95.2734 108.693 95.1506 108.57 95.1506 108.323C95.1506 108.323 95.1506 108.076 95.1506 107.953L96.3786 102.898C96.3786 102.775 96.3786 102.652 96.3786 102.528C96.3786 102.405 96.2558 102.282 96.0102 102.282V102.035H97.2382C97.4838 102.035 97.6066 102.158 97.6066 102.405C97.6066 102.528 97.6066 102.652 97.6066 102.652H97.7294Z" fill="#1E5A68"/>
<path d="M109.272 104.748L109.763 102.898C109.763 102.775 109.763 102.652 109.763 102.528C109.763 102.405 109.641 102.282 109.395 102.282V102.035H110.623C110.869 102.035 110.991 102.158 110.991 102.405C110.991 102.528 110.991 102.652 110.869 102.652L109.763 107.83C109.763 107.953 109.763 108.076 109.763 108.2C109.763 108.323 109.763 108.446 110.132 108.446L110.009 108.693H108.781C108.658 108.693 108.535 108.57 108.535 108.323C108.535 108.323 108.535 108.076 108.535 107.953L109.027 105.611H106.694L106.202 107.83C106.202 107.953 106.202 108.076 106.202 108.2C106.202 108.323 106.325 108.446 106.571 108.446L106.448 108.693H105.22C105.097 108.693 104.974 108.57 104.974 108.323C104.974 108.323 104.974 108.076 104.974 107.953L106.202 102.898C106.202 102.775 106.202 102.652 106.202 102.528C106.202 102.405 106.08 102.282 105.834 102.282V102.035H107.062C107.308 102.035 107.43 102.158 107.43 102.405C107.43 102.528 107.43 102.652 107.43 102.652L106.939 104.748H109.272Z" fill="#1E5A68"/>
<path d="M116.026 107.337L115.903 108.076C115.781 108.693 115.412 108.816 114.307 108.816H113.816C112.588 108.816 111.483 108.57 111.483 106.967C111.483 106.474 111.605 105.98 111.851 104.871C112.342 102.652 113.325 102.035 114.798 102.035C116.517 102.035 117.009 102.652 117.009 103.638C117.009 103.885 117.009 105.487 116.272 105.487H112.956C112.833 105.98 112.711 106.474 112.711 106.844C112.711 107.583 113.079 107.707 113.939 107.707H114.675C115.535 107.707 115.658 107.583 115.903 107.337H116.026ZM115.781 104.501C115.903 104.131 115.903 103.885 115.903 103.638C115.903 103.145 115.658 103.021 114.798 103.021C113.693 103.021 113.447 103.391 113.202 104.501H115.781Z" fill="#1E5A68"/>
<path d="M122.043 107.337L121.92 108.076C121.675 108.693 121.429 108.816 120.201 108.816H119.833C118.114 108.816 117.623 108.2 117.623 107.09C117.623 106.474 117.745 105.857 117.991 105.117C118.482 102.775 119.342 102.035 120.815 102.035H122.657V102.528C122.534 102.898 122.289 103.021 121.92 103.021H120.938C119.833 103.021 119.465 103.638 119.219 105.117C118.973 105.857 118.851 106.474 118.851 106.844C118.851 107.583 119.342 107.707 120.201 107.707H120.692C121.552 107.707 121.675 107.583 121.92 107.337H122.043Z" fill="#1E5A68"/>
<path d="M130.025 107.953C129.534 108.57 129.288 108.816 128.183 108.816C126.955 108.816 126.587 108.2 126.587 107.46C126.587 107.337 126.587 107.213 126.587 106.967L127.569 102.898C127.569 102.775 127.569 102.652 127.569 102.528C127.569 102.405 127.446 102.282 127.201 102.282L127.323 102.035H128.551C128.674 102.035 128.797 102.158 128.797 102.405C128.797 102.528 128.797 102.652 128.797 102.652L127.815 106.844C127.815 106.967 127.815 107.09 127.815 107.213C127.815 107.583 128.06 107.707 128.674 107.707C129.779 107.707 130.148 107.337 130.393 106.227L131.13 102.898C131.13 102.775 131.253 102.652 131.253 102.528C131.253 102.405 131.13 102.282 130.885 102.282V102.035H132.113C132.358 102.035 132.358 102.158 132.358 102.405C132.358 102.528 132.358 102.652 132.358 102.652L131.499 106.844C131.376 107.09 131.376 107.337 131.376 107.46C131.376 107.707 131.499 107.83 131.867 107.83C131.99 107.83 132.113 107.83 132.235 107.83L131.867 109.926C131.744 110.419 131.744 110.419 131.376 110.419H131.253C130.885 110.419 130.762 110.419 130.762 110.172C130.762 110.049 130.762 109.926 130.762 109.803L131.13 108.816C130.639 108.816 130.148 108.446 130.148 107.953H130.025Z" fill="#1E5A68"/>
<path d="M137.516 107.337L137.393 108.076C137.147 108.693 136.902 108.816 135.674 108.816H135.183C134.077 108.816 132.972 108.57 132.972 106.967C132.972 106.474 133.095 105.98 133.341 104.871C133.832 102.652 134.691 102.035 136.288 102.035C138.007 102.035 138.498 102.652 138.498 103.638C138.498 103.885 138.375 105.487 137.761 105.487H134.446C134.2 105.98 134.2 106.474 134.2 106.844C134.2 107.583 134.569 107.707 135.305 107.707H136.165C137.024 107.707 137.147 107.583 137.393 107.337H137.516ZM137.27 104.501C137.393 104.131 137.393 103.885 137.393 103.638C137.393 103.145 137.147 103.021 136.288 103.021C135.183 103.021 134.937 103.391 134.569 104.501H137.27Z" fill="#1E5A68"/>
<path d="M143.41 104.748L143.901 102.898C143.901 102.775 143.901 102.652 143.901 102.528C143.901 102.405 143.778 102.282 143.533 102.282L143.656 102.035H144.884C145.006 102.035 145.129 102.158 145.129 102.405C145.129 102.528 145.129 102.652 145.129 102.652L143.901 107.83C143.901 107.953 143.901 108.076 143.901 108.2C143.901 108.323 144.024 108.446 144.27 108.446V108.693H143.042C142.796 108.693 142.673 108.57 142.673 108.323C142.673 108.323 142.673 108.076 142.673 107.953L143.287 105.611H140.831L140.34 107.83C140.34 107.953 140.34 108.076 140.34 108.2C140.34 108.323 140.463 108.446 140.708 108.446V108.693H139.48C139.235 108.693 139.112 108.57 139.112 108.323C139.112 108.323 139.112 108.076 139.235 107.953L140.34 102.898C140.34 102.775 140.34 102.652 140.34 102.528C140.34 102.405 140.34 102.282 139.972 102.282L140.094 102.035H141.322C141.445 102.035 141.568 102.158 141.568 102.405C141.568 102.528 141.568 102.652 141.568 102.652L141.077 104.748H143.41Z" fill="#1E5A68"/>
<path d="M148.322 102.652C148.69 102.282 149.059 102.035 149.918 102.035C151.146 102.035 151.392 102.405 151.515 102.652H151.76C152.128 102.282 152.374 102.035 153.356 102.035C154.339 102.035 154.83 102.282 154.83 103.145C154.83 103.268 154.83 103.515 154.707 103.761L153.848 107.83C153.848 107.953 153.725 108.076 153.725 108.2C153.725 108.323 153.848 108.446 154.093 108.446V108.693H152.865C152.742 108.693 152.62 108.57 152.62 108.323C152.62 108.323 152.62 108.076 152.62 107.953L153.479 104.008C153.602 103.885 153.602 103.638 153.602 103.515C153.602 103.145 153.356 103.021 152.62 103.021C151.76 103.021 151.392 103.391 151.269 104.131L150.409 107.83C150.409 107.953 150.409 108.076 150.409 108.2C150.409 108.323 150.532 108.446 150.778 108.446L150.655 108.693H149.427C149.304 108.693 149.181 108.57 149.181 108.323C149.181 108.323 149.181 108.076 149.181 107.953L150.164 104.008C150.164 103.885 150.164 103.638 150.164 103.515C150.164 103.145 149.918 103.021 149.304 103.021C148.322 103.021 147.953 103.391 147.831 104.131L146.971 107.83C146.971 107.953 146.971 108.076 146.971 108.2C146.971 108.323 147.094 108.446 147.339 108.446V108.693H146.111C145.866 108.693 145.743 108.57 145.743 108.323C145.743 108.323 145.743 108.076 145.743 107.953L146.971 102.898C146.971 102.775 146.971 102.652 146.971 102.528C146.971 102.405 146.848 102.282 146.603 102.282L146.725 102.035H147.953C148.076 102.035 148.199 102.158 148.199 102.405C148.199 102.528 148.199 102.652 148.199 102.652H148.322Z" fill="#1E5A68"/>
<path d="M158.023 102.775C158.391 102.158 158.637 102.035 159.619 102.035C160.97 102.035 161.461 102.652 161.461 103.638C161.461 104.008 161.338 104.501 160.97 106.104C160.601 107.83 159.987 108.693 158.514 108.693H156.549L156.304 109.679C156.304 109.803 156.304 109.803 156.304 109.926C156.304 110.049 156.426 110.296 156.672 110.296V110.419H155.444C155.198 110.419 155.076 110.419 155.076 110.172C155.076 110.049 155.076 109.926 155.198 109.803L156.672 102.898C156.795 102.775 156.795 102.652 156.795 102.528C156.795 102.405 156.672 102.282 156.426 102.282V102.035H157.654C157.9 102.035 158.023 102.158 158.023 102.405C158.023 102.528 157.9 102.652 157.9 102.652L158.023 102.775ZM158.145 107.707C159.128 107.707 159.496 107.09 159.865 105.734C160.11 104.501 160.233 104.131 160.233 103.885C160.233 103.268 159.865 103.021 159.251 103.021C158.145 103.021 157.777 103.391 157.532 104.624L156.795 107.707H158.145Z" fill="#1E5A68"/>
<path d="M172.513 108.693H171.285C170.916 108.693 170.794 108.446 170.794 108.076V104.254L168.952 108.693H167.724L167.355 104.254L166.127 107.953C166.127 108.076 166.005 108.076 166.005 108.2C166.005 108.323 166.127 108.446 166.373 108.446L166.25 108.693H165.022C164.777 108.693 164.777 108.57 164.777 108.446C164.777 108.323 164.777 108.2 164.777 108.076L166.619 102.898C166.619 102.775 166.619 102.652 166.619 102.652C166.619 102.405 166.496 102.282 166.373 102.282V102.035H167.969C168.461 102.035 168.583 102.282 168.583 102.775L168.952 105.734L170.18 102.898C170.18 102.775 170.302 102.652 170.302 102.528C170.302 102.405 170.18 102.282 169.934 102.282L170.057 102.035H171.53C172.144 102.035 172.267 102.405 172.267 102.898V107.953C172.267 108.323 172.267 108.446 172.636 108.446L172.513 108.693Z" fill="#1E5A68"/>
<path d="M178.776 104.994C178.653 105.487 178.407 105.611 177.793 105.611H174.969C174.846 106.227 174.846 106.597 174.846 106.72C174.846 107.213 175.092 107.46 175.828 107.46H176.934C177.548 107.46 177.793 107.46 178.039 107.213H178.162L178.039 107.83C177.916 108.57 177.548 108.693 176.442 108.693H175.46C174.232 108.693 173.25 108.323 173.25 106.844C173.25 106.35 173.372 105.857 173.495 105.241C173.986 103.021 174.846 102.035 176.811 102.035C178.284 102.035 179.021 102.652 179.021 103.761C179.021 104.008 178.898 104.624 178.776 104.994ZM176.688 103.268C175.706 103.268 175.46 103.761 175.337 104.501H177.425C177.548 104.254 177.548 104.131 177.548 103.885C177.548 103.391 177.302 103.268 176.688 103.268Z" fill="#1E5A68"/>
<path d="M185.652 102.898L184.547 107.953C184.424 108.076 184.424 108.2 184.424 108.2C184.424 108.323 184.547 108.446 184.792 108.446L184.67 108.693H183.565C183.196 108.693 182.951 108.446 182.951 108.2C182.951 108.076 183.073 107.953 183.073 107.83L183.565 105.734H181.477L180.986 107.953C180.863 108.076 180.863 108.2 180.863 108.2C180.863 108.323 180.986 108.446 181.231 108.446L181.109 108.693H180.003C179.635 108.693 179.389 108.446 179.389 108.2C179.389 108.076 179.512 107.953 179.512 107.83L180.617 102.775C180.74 102.652 180.74 102.652 180.74 102.528C180.74 102.405 180.617 102.282 180.372 102.282L180.495 102.035H181.6C182.091 102.035 182.214 102.282 182.214 102.528C182.214 102.652 182.091 102.775 182.091 102.898L181.723 104.624H183.81L184.178 102.775C184.178 102.652 184.301 102.652 184.301 102.528C184.301 102.405 184.178 102.282 183.933 102.282L184.056 102.035H185.161C185.529 102.035 185.775 102.282 185.775 102.528C185.775 102.528 185.652 102.775 185.652 102.898Z" fill="#1E5A68"/>
<path d="M192.283 102.775L190.932 108.446C190.687 109.556 189.95 110.419 188.354 110.419H187.003C186.266 110.419 185.898 110.296 185.898 109.679C185.898 109.556 185.898 109.433 185.898 109.309L186.02 108.816H186.143C186.389 109.186 186.634 109.186 187.126 109.186H187.985C189.09 109.186 189.459 108.693 189.581 108.076L189.704 107.46H189.581L189.09 108.076C188.845 108.323 188.476 108.446 187.862 108.446C186.757 108.446 186.266 107.953 186.266 106.844C186.266 106.474 186.266 105.857 186.512 105.241C187.003 102.898 188.231 102.035 189.95 102.035H191.915C192.16 102.035 192.406 102.282 192.406 102.528C192.406 102.528 192.283 102.652 192.283 102.775ZM189.95 103.268C188.968 103.268 188.354 103.885 188.108 105.241C187.985 105.857 187.862 106.104 187.862 106.474C187.862 107.09 188.108 107.213 188.722 107.213C189.459 107.213 189.827 106.844 190.073 105.857L190.687 103.268H189.95Z" fill="#1E5A68"/>
<path d="M198.423 104.994C198.3 105.487 198.177 105.611 197.563 105.611H194.616C194.616 106.227 194.493 106.597 194.493 106.72C194.493 107.213 194.739 107.46 195.476 107.46H196.581C197.195 107.46 197.441 107.46 197.686 107.213H197.809L197.686 107.83C197.563 108.57 197.195 108.693 196.09 108.693H195.107C193.879 108.693 193.02 108.323 193.02 106.844C193.02 106.35 193.02 105.857 193.143 105.241C193.757 103.021 194.616 102.035 196.458 102.035C197.932 102.035 198.669 102.652 198.669 103.761C198.669 104.008 198.669 104.624 198.423 104.994ZM196.335 103.268C195.476 103.268 195.23 103.761 194.985 104.501H197.195C197.195 104.254 197.195 104.131 197.195 103.885C197.195 103.391 196.949 103.268 196.335 103.268Z" fill="#1E5A68"/>
<path d="M204.072 108.693H202.844C202.475 108.693 202.352 108.446 202.23 108.076L201.984 103.885L200.019 107.953C200.019 108.076 200.019 108.2 200.019 108.2C200.019 108.323 200.019 108.446 200.265 108.446L200.142 108.693H198.914C198.669 108.693 198.546 108.57 198.546 108.446C198.546 108.323 198.669 108.2 198.669 108.076L201.247 102.898C201.37 102.775 201.37 102.652 201.37 102.528C201.37 102.405 201.247 102.282 201.125 102.282V102.035H202.844C203.212 102.035 203.335 102.282 203.335 102.652L203.703 108.076C203.703 108.323 203.826 108.446 204.072 108.446V108.693Z" fill="#1E5A68"/>
<path d="M210.089 104.994C209.966 105.487 209.72 105.611 209.229 105.611H206.282C206.159 106.227 206.159 106.597 206.159 106.72C206.159 107.213 206.405 107.46 207.142 107.46H208.247C208.861 107.46 209.106 107.46 209.352 107.213H209.475L209.352 107.83C209.229 108.57 208.861 108.693 207.756 108.693H206.773C205.545 108.693 204.563 108.323 204.563 106.844C204.563 106.35 204.686 105.857 204.808 105.241C205.3 103.021 206.159 102.035 208.124 102.035C209.598 102.035 210.334 102.652 210.334 103.761C210.334 104.008 210.212 104.624 210.089 104.994ZM208.001 103.268C207.019 103.268 206.773 103.761 206.65 104.501H208.738C208.861 104.254 208.861 104.131 208.861 103.885C208.861 103.391 208.615 103.268 208.001 103.268Z" fill="#1E5A68"/>
<path d="M216.229 104.994C216.106 105.487 215.983 105.611 215.369 105.611H212.422C212.422 106.227 212.299 106.597 212.299 106.72C212.299 107.213 212.545 107.46 213.281 107.46H214.509C215.001 107.46 215.246 107.46 215.492 107.213H215.737L215.492 107.83C215.369 108.57 215.001 108.693 213.895 108.693H212.913C211.685 108.693 210.825 108.323 210.825 106.844C210.825 106.35 210.825 105.857 210.948 105.241C211.562 103.021 212.422 102.035 214.264 102.035C215.737 102.035 216.474 102.652 216.474 103.761C216.474 104.008 216.474 104.624 216.229 104.994ZM214.141 103.268C213.281 103.268 213.036 103.761 212.79 104.501H215.001C215.001 104.254 215.001 104.131 215.001 103.885C215.001 103.391 214.755 103.268 214.141 103.268Z" fill="#1E5A68"/>
<path d="M221.754 100.925C221.754 101.172 221.509 101.295 221.263 101.295H220.281C220.035 101.295 219.912 101.418 219.79 101.788V102.035H221.386L221.14 102.898C221.14 103.145 221.018 103.268 220.649 103.268H219.79C219.544 103.268 219.421 103.391 219.421 103.638L218.316 107.953C218.316 108.076 218.316 108.199 218.316 108.199C218.316 108.323 218.439 108.446 218.684 108.446L218.562 108.693H217.457C217.088 108.693 216.843 108.446 216.843 108.199C216.843 108.076 216.843 107.953 216.965 107.83L217.948 103.268H217.457L217.702 102.282C218.07 102.282 218.316 102.035 218.439 101.542C218.684 100.555 219.176 100.186 220.158 100.186H222L221.754 100.925Z" fill="#1E5A68"/>
<path fill-rule="evenodd" clip-rule="evenodd" d="M41.8567 68.377C40.3832 69.3633 38.9096 70.3496 37.5588 71.3359C41.6111 76.7608 36.9449 76.021 39.5236 79.4732C42.4707 77.5005 46.0318 75.7744 46.4002 73.3086C45.1723 70.4729 43.5759 69.1167 41.8567 68.377Z" fill="#1E5A68"/>
<path fill-rule="evenodd" clip-rule="evenodd" d="M47.3826 109.679C52.5401 108.076 58.9256 107.336 61.6271 108.076C61.3815 105.857 61.2587 103.637 61.1359 101.418C58.4344 100.309 48.7334 101.911 46.4003 102.405C45.6635 99.3223 45.4179 99.0757 44.9267 97.5962C44.6811 92.6645 57.0836 90.4453 64.2058 92.0481C72.0648 94.3906 63.5918 108.692 69.3633 110.172C75.3804 87.9795 77.3451 82.4314 72.4332 90.0754C63.469 83.6643 51.8033 85.7602 41.8568 89.8288C38.5412 82.0615 33.0154 76.2668 30.191 71.705C25.0336 62.5814 26.5071 58.2662 26.5071 58.0197C26.3843 57.5265 22.332 65.5404 28.1035 75.2805C31.5418 81.0751 34.4889 84.1574 37.6817 91.8015C24.788 98.5825 -1.98178 116.706 8.33317 147.899C3.91247 119.295 28.9631 102.774 39.5236 96.9797C40.0148 99.199 41.3656 101.542 41.734 103.391C38.2956 105.733 27.7351 108.569 28.7175 116.09C29.6999 120.405 35.7169 112.884 43.3303 111.282C47.5054 135.077 28.3491 170.708 10.2979 153.447C28.8403 175.023 52.1717 138.529 47.3826 109.679Z" fill="#1E5A68"/>
</g>
<defs>
<clipPath id="clip0_301_345">
<rect width="216" height="102" fill="white" transform="translate(6 58)"/>
</clipPath>
</defs>
</svg>
